<svg xmlns="http://www.w3.org/2000/svg" width="512" height="512" viewBox="0 0 512 512">
  <rect width="512" height="512" rx="120" fill="#000000"/>
  <g transform="translate(86, 86) scale(14.5)" stroke="white" stroke-width="1.8" stroke-linecap="round" stroke-linejoin="round" fill="none">
    <path d="m16 2-2.3 2.3c-1 1-1 2.6 0 3.5l4.3 4.4c.9.9 2.5.9 3.5 0L23.8 10"/>
    <path d="m2.7 13.3 11 11"/>
    <path d="m18.5 22.5-4.6-4.6"/>
    <path d="m15.8 5.4-3 3"/>
    <path d="M13 2.2 11 4.2c-1 1-1 2.6 0 3.5l4 4c.9.9 2.5.9 3.5 0l2.2-2.2"/>
    <path d="m2.2 21.8 10-10"/>
    <path d="M7 16.6 2 21.6"/>
    <path d="m16.5 7.5L21.3 2.7"/>
  </g>
</svg>
