<?xml version="1.0" encoding="UTF-8"?>
<svg version="1.1" xmlns="http://www.w3.org/2000/svg" width="92" height="84">
<path d="M0 0 C30.36 0 60.72 0 92 0 C92 27.72 92 55.44 92 84 C61.64 84 31.28 84 0 84 C0 56.28 0 28.56 0 0 Z " fill="#1D1B1B" transform="translate(0,0)"/>
<path d="M0 0 C0.56203125 0.24492187 1.1240625 0.48984375 1.703125 0.7421875 C1.12067197 4.1189405 0.03429067 5.70654548 -2.359375 8.1171875 C-4.7753908 10.78691379 -5.26395674 11.44043679 -5.671875 15.1796875 C-5.548125 16.0253125 -5.424375 16.8709375 -5.296875 17.7421875 C-4.02486529 16.63937623 -2.75431647 15.53487981 -1.484375 14.4296875 C-0.42283203 13.50736328 -0.42283203 13.50736328 0.66015625 12.56640625 C2.68940027 10.81159472 2.68940027 10.81159472 4.328125 8.9921875 C4.781875 8.5796875 5.235625 8.1671875 5.703125 7.7421875 C7.890625 8.0546875 7.890625 8.0546875 9.703125 8.7421875 C9.15141134 12.5869421 7.48850169 14.25092297 4.703125 16.8671875 C1.81026912 19.51279474 1.81026912 19.51279474 -0.296875 22.7421875 C2.36246547 23.33349178 2.36246547 23.33349178 5.703125 22.7421875 C7.90323154 21.022564 9.82900536 19.17878062 11.7734375 17.17578125 C13.703125 15.7421875 13.703125 15.7421875 15.9453125 16.02734375 C16.52539062 16.26324219 17.10546875 16.49914062 17.703125 16.7421875 C17.12854062 20.30775908 15.84956852 21.95318446 13.265625 24.4296875 C12.64816406 25.03167969 12.03070313 25.63367188 11.39453125 26.25390625 C7.83007717 29.39029656 4.22333772 28.95982737 -0.296875 28.7421875 C-2.30408423 28.45544332 -4.30866187 28.13983013 -6.296875 27.7421875 C-6.626875 28.4021875 -6.956875 29.0621875 -7.296875 29.7421875 C-6.636875 29.7421875 -5.976875 29.7421875 -5.296875 29.7421875 C-3.9921875 31.10546875 -3.9921875 31.10546875 -2.421875 33.0546875 C1.21569777 37.35851044 5.2231426 41.07555647 9.43896484 44.79614258 C12.54002258 47.56136214 15.31376082 50.3337451 17.703125 53.7421875 C17.453125 56.0546875 17.453125 56.0546875 16.703125 57.7421875 C13.26603707 57.14774657 11.45643926 55.94784566 8.890625 53.6171875 C7.85228516 52.68519531 7.85228516 52.68519531 6.79296875 51.734375 C4.18314139 49.24650219 1.73745494 46.62551054 -0.65625 43.9296875 C-2.2445805 42.49835262 -2.2445805 42.49835262 -4.37890625 42.984375 C-6.34691978 43.70681376 -6.34691978 43.70681376 -8.234375 44.8671875 C-11.02774165 46.05225214 -12.42677856 45.65221808 -15.296875 44.7421875 C-16.97602763 43.76329823 -18.64449181 42.76561682 -20.296875 41.7421875 C-20.76061523 42.23211182 -21.22435547 42.72203613 -21.70214844 43.22680664 C-23.80397026 45.43235405 -25.92493225 47.61849908 -28.046875 49.8046875 C-28.77648438 50.57619141 -29.50609375 51.34769531 -30.2578125 52.14257812 C-30.96679688 52.86767578 -31.67578125 53.59277344 -32.40625 54.33984375 C-33.05561523 55.01539307 -33.70498047 55.69094238 -34.37402344 56.38696289 C-36.296875 57.7421875 -36.296875 57.7421875 -38.54003906 57.45483398 C-39.11979492 57.21966064 -39.69955078 56.9844873 -40.296875 56.7421875 C-40.13143385 52.99908148 -39.05221727 51.2315041 -36.390625 48.76953125 C-35.20251739 47.72828327 -34.00419125 46.6986009 -32.796875 45.6796875 C-31.5920511 44.65520348 -30.3938239 43.62289833 -29.203125 42.58203125 C-28.67009766 42.13206787 -28.13707031 41.68210449 -27.58789062 41.21850586 C-25.99345143 39.39521278 -25.51902556 38.14995553 -25.296875 35.7421875 C-26.97392296 33.76901216 -28.57322458 32.14504409 -30.484375 30.4296875 C-39.91145199 21.46794328 -39.91145199 21.46794328 -40.671875 14.1171875 C-40.12873463 9.22892416 -39.06268375 5.99447688 -35.296875 2.7421875 C-29.27728013 5.417563 -25.34244099 9.71916734 -21.14453125 14.63671875 C-18.34672398 17.82491774 -15.33622691 20.78597896 -12.296875 23.7421875 C-11.306875 23.4121875 -10.316875 23.0821875 -9.296875 22.7421875 C-9.626875 22.1028125 -9.956875 21.4634375 -10.296875 20.8046875 C-11.67661982 16.579219 -12.46932657 13.10904305 -11.296875 8.7421875 C-4.6719543 -0.52440303 -4.6719543 -0.52440303 0 0 Z " fill="#F3F2F2" transform="translate(59.296875,13.2578125)"/>
<path d="M0 0 C3.61993444 1.52731339 5.91348007 3.68211104 8.66015625 6.46484375 C9.53607422 7.34720703 10.41199219 8.22957031 11.31445312 9.13867188 C12.22130859 10.06228516 13.12816406 10.98589844 14.0625 11.9375 C14.97322266 12.85724609 15.88394531 13.77699219 16.82226562 14.72460938 C18.51277712 16.43256166 20.20122877 18.14255693 21.88696289 19.85522461 C23.15112091 21.13837056 24.44229179 22.39686952 25.78295898 23.59985352 C27 25 27 25 27 28 C25.2890625 28.73828125 25.2890625 28.73828125 23 29 C20.7734375 27.48046875 20.7734375 27.48046875 18.375 25.1875 C17.50488281 24.3625 16.63476562 23.5375 15.73828125 22.6875 C14.83464844 21.800625 13.93101563 20.91375 13 20 C12.08605469 19.113125 11.17210937 18.22625 10.23046875 17.3125 C0.07625933 7.32182836 0.07625933 7.32182836 -0.1875 2.75 C-0.125625 1.8425 -0.06375 0.935 0 0 Z " fill="#2C2320" transform="translate(24,24)"/>
<path d="M0 0 C0 3 0 3 -1.5 5.375 C-3.13485866 8.23600265 -3.27690589 9.76943128 -3 13 C-3.66 13 -4.32 13 -5 13 C-5.875 10.4375 -5.875 10.4375 -6 7 C-4.29275002 4.3682085 -2.23621992 2.19084734 0 0 Z " fill="#393434" transform="translate(59,18)"/>
<path d="M0 0 C2.31 1.98 4.62 3.96 7 6 C6.67 6.99 6.34 7.98 6 9 C4.99105628 8.07213211 3.99309093 7.13231567 3 6.1875 C2.1646875 5.40439453 2.1646875 5.40439453 1.3125 4.60546875 C0 3 0 3 0 0 Z " fill="#1F1713" transform="translate(37,36)"/>
</svg>
